<svg width="56" height="56" viewBox="0 0 56 56" fill="none" xmlns="http://www.w3.org/2000/svg">
<path fill-rule="evenodd" clip-rule="evenodd" d="M15.9612 31.1683C15.9369 31.2344 15.8931 31.3221 15.8298 31.4316C15.7496 31.5711 15.644 31.6564 15.513 31.6876C15.3359 31.7302 15.2309 31.745 15.198 31.732C15.0647 31.6789 14.953 31.6079 14.863 31.5192C14.1049 30.7733 13.2974 29.9684 12.4404 29.1045C12.2183 28.8807 12.0466 28.7336 11.9254 28.663C11.3167 28.3097 10.6776 28.3134 10.1522 28.8394C7.21846 31.776 3.93485 35.0576 0.301385 38.6841C0.222741 38.7628 0.16396 38.8297 0.125043 38.8848C-0.214263 39.3652 0.204701 39.4655 0.576236 39.4655H15.3549C15.5009 39.4655 15.6107 39.4785 15.6845 39.5044C15.9849 39.6096 16.0031 39.8504 16.0031 40.1684C16.0023 49.1461 16.0037 54.0152 16.0074 54.7757C16.0098 55.2299 16.2756 55.5412 16.7426 55.2664C16.9047 55.1711 17.0456 55.0647 17.1652 54.9471C17.8268 54.2953 20.935 51.1915 26.49 45.6357C26.7024 45.4228 26.8585 45.2844 26.9582 45.2203C27.3839 44.9467 27.8856 44.8731 28.3477 45.1103C28.4819 45.1788 28.6876 45.3515 28.9649 45.6284C34.4031 51.054 37.5734 54.2256 38.4758 55.1429C38.5439 55.2127 38.6564 55.2887 38.8133 55.371C39.0961 55.5193 39.3308 55.3637 39.4591 55.1016C39.4948 55.0294 39.5126 54.9297 39.5126 54.8024C39.5122 49.4323 39.5122 44.6299 39.5126 40.3953C39.513 40.1451 39.5274 39.9739 39.5558 39.8814C39.6885 39.4509 40.0256 39.4565 40.4517 39.4636L40.5328 39.4649C40.5475 39.4651 40.5624 39.4652 40.5773 39.4653C40.5926 39.4654 40.608 39.4655 40.6235 39.4655C49.6421 39.4671 54.4593 39.4653 55.0751 39.46C55.3195 39.4582 55.671 39.3232 55.5476 39.0082C55.4888 38.8586 55.4136 38.7378 55.322 38.6458C54.2185 37.5415 51.0275 34.3516 45.749 29.0759C45.5362 28.8631 45.4002 28.7133 45.341 28.6265C45.0199 28.1559 44.8971 27.6032 45.1568 27.0918C45.2334 26.9401 45.4261 26.7097 45.735 26.4004C48.8224 23.3134 51.9313 20.2055 55.0617 17.0767C55.2861 16.8524 55.8516 16.1889 55.3658 15.9676C55.2628 15.921 55.1661 15.8977 55.0757 15.8977C48.0042 15.8977 43.1862 15.8975 40.6217 15.8971C40.3303 15.8971 40.128 15.8665 40.0149 15.8052C39.8057 15.6913 39.7013 15.4864 39.7017 15.1905C39.7049 12.7643 39.7058 7.92599 39.7041 0.675695C39.7041 0.543945 39.6549 0.403885 39.5564 0.255515C39.481 0.142007 39.3991 0.066808 39.3107 0.029918C39.0146 -0.0929134 38.6242 0.189234 38.4217 0.391115C33.3507 5.44788 26.199 12.596 16.9663 21.8355C16.5237 22.2782 16.2289 22.8087 16.0822 23.4269C16.0279 23.6555 16.0009 23.9841 16.0013 24.4126C16.0046 27.6585 16.005 29.8145 16.0025 30.8807C16.0021 30.9995 15.9883 31.0953 15.9612 31.1683ZM16.9596 0.341254C16.7517 0.192883 16.3491 -0.035146 16.1436 0.185586C16.0487 0.287337 16.0013 0.434694 16.0013 0.627657C16.0029 1.39627 16.0042 4.54813 16.005 10.0832C16.005 10.6032 16.3656 11.0671 16.9183 11.0677C18.2139 11.0693 21.2928 11.0693 26.155 11.0677C26.3917 11.0677 26.5525 11.0477 26.6372 11.0075C26.8253 10.9183 26.9049 10.7515 26.8762 10.5071C26.8494 10.2829 26.7935 10.1282 26.7083 10.0431C21.0094 4.34584 17.8255 1.16722 17.1567 0.507258C17.0946 0.44645 17.029 0.391116 16.9596 0.341254ZM17.9824 15.8679C18.0213 15.863 18.0213 15.8582 17.9824 15.8533C17.1668 15.7471 16.5806 15.3218 16.2239 14.5775C16.0832 14.2832 15.9964 13.9674 15.9636 13.6302C15.9632 13.6273 15.961 13.6241 15.9569 13.6204C15.9553 13.6192 15.9537 13.6178 15.9521 13.6162C15.9452 13.6081 15.9409 13.6117 15.9393 13.6271C15.8061 14.8062 14.9384 15.6715 13.7709 15.8502C13.6756 15.8648 13.6762 15.8746 13.7727 15.8794C14.1473 15.8981 14.5044 16.0047 14.8441 16.1993C15.4883 16.5686 15.8529 17.1246 15.9381 17.8672C15.9442 17.9191 15.951 17.9193 15.9587 17.8678C15.9798 17.7231 16.0078 17.5808 16.0427 17.441C16.2506 16.6067 16.8721 16.0588 17.7252 15.9038C17.7868 15.8924 17.8726 15.8804 17.9824 15.8679ZM9.74785 26.4952C9.97102 26.6734 10.6016 27.1489 10.7956 26.6606C10.8365 26.5581 10.857 26.464 10.857 26.3785C10.8582 21.2893 10.858 18.1374 10.8564 16.9229C10.8558 16.3829 10.5225 15.8989 9.97223 15.8989C4.94547 15.8981 1.83941 15.8967 0.654069 15.8946C0.311722 15.894 0.0289668 16.0673 0.0812614 16.4547C0.0901799 16.5191 0.126665 16.6412 0.190716 16.8207C0.205309 16.8621 0.275238 16.946 0.400502 17.0725C6.60207 23.3304 9.71786 26.4713 9.74785 26.4952ZM28.9692 43.3548C28.583 43.7409 27.9494 44.017 27.6642 43.3092C27.6387 43.2459 27.6259 43.1683 27.6259 43.0763V28.902C27.6259 28.6971 27.6417 28.4672 27.7123 28.2812C27.8764 27.8478 28.2107 27.6311 28.715 27.6311C34.6085 27.6291 39.4139 27.6291 43.1313 27.6311C43.2346 27.6311 43.3569 27.6638 43.4979 27.729C43.881 27.9066 43.7807 28.3335 43.6226 28.6363C43.5691 28.7396 43.4675 28.8659 43.3179 29.0151C40.8131 31.5204 36.0301 36.3003 28.9692 43.3548ZM27.7384 21.9122C28.0595 22.595 28.8098 22.1584 29.1625 21.8094C29.486 21.4895 31.0362 19.9404 33.8131 17.1619C33.9197 17.0552 33.9973 16.959 34.046 16.873C34.1712 16.6505 34.2983 16.2789 34.0618 16.0746C33.8992 15.934 33.7032 15.8626 33.4738 15.8606C32.8608 15.8553 31.3206 15.8535 28.853 15.8551C28.5182 15.8555 28.279 15.8867 28.1355 15.9488C27.7962 16.0959 27.6263 16.39 27.6259 16.8311C27.6247 18.4275 27.6247 19.9479 27.6259 21.3923C27.6259 21.6027 27.6569 21.7389 27.7384 21.9122Z" fill="black"/>
<path fill-rule="evenodd" clip-rule="evenodd" d="M15.8298 31.4316C15.8931 31.3221 15.9369 31.2344 15.9612 31.1683C15.9883 31.0953 16.0021 30.9995 16.0025 30.8807C16.005 29.8145 16.0046 27.6585 16.0013 24.4126C16.0009 23.9841 16.0279 23.6555 16.0822 23.4269C16.2289 22.8087 16.5237 22.2782 16.9663 21.8355C26.199 12.596 33.3507 5.44788 38.4217 0.391115C38.6242 0.189234 39.0146 -0.0929134 39.3107 0.029918C39.3991 0.066808 39.481 0.142007 39.5564 0.255515C39.6549 0.403885 39.7041 0.543945 39.7041 0.675695C39.7058 7.92599 39.7049 12.7643 39.7017 15.1905C39.7013 15.4864 39.8057 15.6913 40.0149 15.8052C40.128 15.8665 40.3303 15.8971 40.6217 15.8971C43.1862 15.8975 48.0042 15.8977 55.0757 15.8977C55.1661 15.8977 55.2628 15.921 55.3658 15.9676C55.8516 16.1889 55.2861 16.8524 55.0617 17.0767C51.9313 20.2055 48.8224 23.3134 45.735 26.4004C45.4261 26.7097 45.2334 26.9401 45.1568 27.0918C44.8971 27.6032 45.0199 28.1559 45.341 28.6265C45.4002 28.7133 45.5362 28.8631 45.749 29.0759C51.0275 34.3516 54.2185 37.5415 55.322 38.6458C55.4136 38.7378 55.4888 38.8586 55.5476 39.0082C55.671 39.3232 55.3195 39.4582 55.0751 39.46C54.4593 39.4653 49.6421 39.4671 40.6235 39.4655L40.5773 39.4653L40.5328 39.4649L40.4517 39.4636C40.0256 39.4565 39.6885 39.4509 39.5558 39.8814C39.5274 39.9739 39.513 40.1451 39.5126 40.3953C39.5122 44.6299 39.5122 49.4323 39.5126 54.8024C39.5126 54.9297 39.4948 55.0294 39.4591 55.1016C39.3308 55.3637 39.0961 55.5193 38.8133 55.371C38.6564 55.2887 38.5439 55.2127 38.4758 55.1429C37.5734 54.2256 34.4031 51.054 28.9649 45.6284C28.6876 45.3515 28.4819 45.1788 28.3477 45.1103C27.8856 44.8731 27.3839 44.9467 26.9582 45.2203C26.8585 45.2844 26.7024 45.4228 26.49 45.6357C20.935 51.1915 17.8268 54.2953 17.1652 54.9471C17.0456 55.0647 16.9047 55.1711 16.7426 55.2664C16.2756 55.5412 16.0098 55.2299 16.0074 54.7757C16.0037 54.0152 16.0023 49.1461 16.0031 40.1684C16.0031 39.8504 15.9849 39.6096 15.6845 39.5044C15.6107 39.4785 15.5009 39.4655 15.3549 39.4655H0.576236C0.204701 39.4655 -0.214263 39.3652 0.125043 38.8848C0.16396 38.8297 0.222741 38.7628 0.301385 38.6841C3.93485 35.0576 7.21846 31.776 10.1522 28.8394C10.6776 28.3134 11.3167 28.3097 11.9254 28.663C12.0466 28.7336 12.2183 28.8807 12.4404 29.1045C13.2974 29.9684 14.1049 30.7733 14.863 31.5192C14.953 31.6079 15.0647 31.6789 15.198 31.732C15.2309 31.745 15.3359 31.7302 15.513 31.6876C15.644 31.6564 15.7496 31.5711 15.8298 31.4316ZM16.1436 0.185586C16.3491 -0.035146 16.7517 0.192883 16.9596 0.341254C17.029 0.391116 17.0946 0.44645 17.1567 0.507258C17.8255 1.16722 21.0094 4.34584 26.7083 10.0431C26.7935 10.1282 26.8494 10.2829 26.8762 10.5071C26.9049 10.7515 26.8253 10.9183 26.6372 11.0075C26.5525 11.0477 26.3917 11.0677 26.155 11.0677C21.2928 11.0693 18.2139 11.0693 16.9183 11.0677C16.3656 11.0671 16.005 10.6032 16.005 10.0832C16.0042 4.54813 16.0029 1.39627 16.0013 0.627657C16.0013 0.434694 16.0487 0.287337 16.1436 0.185586ZM17.9824 15.8533C18.0213 15.8582 18.0213 15.863 17.9824 15.8679C17.8726 15.8804 17.7868 15.8924 17.7252 15.9038C16.8721 16.0588 16.2506 16.6067 16.0427 17.441C16.0078 17.5808 15.9798 17.7231 15.9587 17.8678C15.951 17.9193 15.9442 17.9191 15.9381 17.8672C15.8529 17.1246 15.4883 16.5686 14.8441 16.1993C14.5044 16.0047 14.1473 15.8981 13.7727 15.8794C13.6762 15.8746 13.6756 15.8648 13.7709 15.8502C14.9384 15.6715 15.8061 14.8062 15.9393 13.6271C15.9409 13.6117 15.9452 13.6081 15.9521 13.6162C15.9537 13.6178 15.9553 13.6192 15.9569 13.6204C15.961 13.6241 15.9632 13.6273 15.9636 13.6302C15.9964 13.9674 16.0832 14.2832 16.2239 14.5775C16.5806 15.3218 17.1668 15.7471 17.9824 15.8533ZM10.7956 26.6606C10.6016 27.1489 9.97102 26.6734 9.74785 26.4952C9.71786 26.4713 6.60207 23.3304 0.400502 17.0725C0.275238 16.946 0.205309 16.8621 0.190716 16.8207C0.126665 16.6412 0.0901799 16.5191 0.0812614 16.4547C0.0289668 16.0673 0.311722 15.894 0.654069 15.8946C1.83941 15.8967 4.94547 15.8981 9.97223 15.8989C10.5225 15.8989 10.8558 16.3829 10.8564 16.9229C10.858 18.1374 10.8582 21.2893 10.857 26.3785C10.857 26.464 10.8365 26.5581 10.7956 26.6606ZM28.9692 43.3548C28.583 43.7409 27.9494 44.017 27.6642 43.3092C27.6387 43.2459 27.6259 43.1683 27.6259 43.0763V28.902C27.6259 28.6971 27.6417 28.4672 27.7123 28.2812C27.8764 27.8478 28.2107 27.6311 28.715 27.6311C34.6085 27.6291 39.4139 27.6291 43.1313 27.6311C43.2346 27.6311 43.3569 27.6638 43.4979 27.729C43.881 27.9066 43.7807 28.3335 43.6226 28.6363C43.5691 28.7396 43.4675 28.8659 43.3179 29.0151C40.8131 31.5204 36.0301 36.3003 28.9692 43.3548ZM27.7384 21.9122C28.0595 22.595 28.8098 22.1584 29.1625 21.8094C29.486 21.4895 31.0362 19.9404 33.8131 17.1619C33.9197 17.0552 33.9973 16.959 34.046 16.873C34.1712 16.6505 34.2983 16.2789 34.0618 16.0746C33.8992 15.934 33.7032 15.8626 33.4738 15.8606C32.8608 15.8553 31.3206 15.8535 28.853 15.8551C28.5182 15.8555 28.279 15.8867 28.1355 15.9488C27.7962 16.0959 27.6263 16.39 27.6259 16.8311C27.6247 18.4275 27.6247 19.9479 27.6259 21.3923C27.6259 21.6027 27.6569 21.7389 27.7384 21.9122Z" fill="black"/>
</svg>
