<?xml version="1.0" encoding="UTF-8"?>
<svg version="1.1" xmlns="http://www.w3.org/2000/svg" width="743" height="743">
<path d="M0 0 C1.5617395 0.00273422 1.5617395 0.00273422 3.1550293 0.00552368 C37.90609374 0.10743978 70.21190796 5.3382786 103.5 15.3125 C104.68505127 15.66151367 104.68505127 15.66151367 105.89404297 16.01757812 C124.72563705 21.62894928 143.84313187 29.37462375 160.64453125 39.6015625 C163.43331857 41.27254587 166.24900393 42.67543364 169.1875 44.0625 C182.48653653 50.59629707 194.87122147 59.1768746 206.5 68.3125 C207.24894531 68.88097656 207.99789062 69.44945313 208.76953125 70.03515625 C227.78519885 84.52817858 246.64119292 101.00178771 261.48828125 119.80078125 C263.43151712 122.22699613 265.46455533 124.51977516 267.5625 126.8125 C271.94804922 131.70074063 275.72956929 136.94249262 279.5 142.3125 C280.221875 143.323125 280.94375 144.33375 281.6875 145.375 C287.38468793 153.44601624 292.60939617 161.7300392 297.5 170.3125 C298.01723633 171.21597168 298.53447266 172.11944336 299.06738281 173.05029297 C311.69829183 195.2948488 322.3731083 218.69023866 329.5 243.3125 C329.81420898 244.3957959 330.12841797 245.4790918 330.45214844 246.59521484 C334.15684757 259.54426884 337.63223894 272.51819483 339.875 285.8125 C340.01824707 286.65635254 340.16149414 287.50020508 340.30908203 288.36962891 C343.10142805 306.42996654 343.87936752 324.56444513 343.8125 342.8125 C343.80976578 344.3742395 343.80976578 344.3742395 343.80697632 345.9675293 C343.70506022 380.71859374 338.4742214 413.02440796 328.5 446.3125 C328.15098633 447.49755127 328.15098633 447.49755127 327.79492188 448.70654297 C321.8154368 468.77351637 313.32309776 488.53590711 302.54052734 506.47509766 C301.30267382 508.66094599 300.20732375 510.89886549 299.10546875 513.15625 C296.61305025 518.20205194 293.77808589 522.94758746 290.75 527.6875 C290.22704346 528.51040527 289.70408691 529.33331055 289.1652832 530.18115234 C284.90947362 536.81083158 280.36827033 543.11565687 275.5 549.3125 C274.93152344 550.06144531 274.36304688 550.81039062 273.77734375 551.58203125 C259.28432142 570.59769885 242.81071229 589.45369292 224.01171875 604.30078125 C221.58550387 606.24401712 219.29272484 608.27705533 217 610.375 C212.11635126 614.76244913 206.86075532 618.53385871 201.5 622.3125 C200.74460937 622.86421875 199.98921875 623.4159375 199.2109375 623.984375 C169.67814108 645.29670231 135.51190105 662.1783363 100.5 672.3125 C99.4167041 672.62670898 98.3334082 672.94091797 97.21728516 673.26464844 C84.26823116 676.96934757 71.29430517 680.44473894 58 682.6875 C57.15614746 682.83074707 56.31229492 682.97399414 55.44287109 683.12158203 C37.38253346 685.91392805 19.24805487 686.69186752 1 686.625 C-0.04115967 686.62317719 -1.08231934 686.62135437 -2.1550293 686.61947632 C-36.90609374 686.51756022 -69.21190796 681.2867214 -102.5 671.3125 C-103.68505127 670.96348633 -103.68505127 670.96348633 -104.89404297 670.60742188 C-124.96101637 664.6279368 -144.72340711 656.13559776 -162.66259766 645.35302734 C-164.84844599 644.11517382 -167.08636549 643.01982375 -169.34375 641.91796875 C-174.38953052 639.42556083 -179.13520009 636.59073286 -183.875 633.5625 C-184.70080566 633.03736816 -185.52661133 632.51223633 -186.37744141 631.97119141 C-193.00620835 627.71400677 -199.2911734 623.16448759 -205.5 618.3125 C-206.57525928 617.50182811 -207.65214198 616.6933059 -208.73046875 615.88671875 C-215.03164047 611.15182508 -220.9997617 606.21653797 -226.76953125 600.83203125 C-228.92582929 598.84231417 -231.1084626 596.91318553 -233.328125 594.99609375 C-237.52275933 591.33780472 -241.50483225 587.4994841 -245.4375 583.5625 C-246.13552734 582.86439209 -246.83355469 582.16628418 -247.55273438 581.44702148 C-252.19603805 576.7524255 -256.478807 571.94847344 -260.55859375 566.75390625 C-262.47335715 564.34600459 -264.4858063 562.08125786 -266.5625 559.8125 C-270.94804922 554.92425937 -274.72956929 549.68250738 -278.5 544.3125 C-279.221875 543.301875 -279.94375 542.29125 -280.6875 541.25 C-286.38468793 533.17898376 -291.60939617 524.8949608 -296.5 516.3125 C-297.27585449 514.95729248 -297.27585449 514.95729248 -298.06738281 513.57470703 C-310.69829183 491.3301512 -321.3731083 467.93476134 -328.5 443.3125 C-328.81420898 442.2292041 -329.12841797 441.1459082 -329.45214844 440.02978516 C-333.15684757 427.08073116 -336.63223894 414.10680517 -338.875 400.8125 C-339.01824707 399.96864746 -339.16149414 399.12479492 -339.30908203 398.25537109 C-342.10142805 380.19503346 -342.87936752 362.06055487 -342.8125 343.8125 C-342.81067719 342.77134033 -342.80885437 341.73018066 -342.80697632 340.6574707 C-342.70506022 305.90640626 -337.4742214 273.60059204 -327.5 240.3125 C-327.15098633 239.12744873 -327.15098633 239.12744873 -326.79492188 237.91845703 C-321.18355072 219.08686295 -313.43787625 199.96936813 -303.2109375 183.16796875 C-301.53995413 180.37918143 -300.13706636 177.56349607 -298.75 174.625 C-292.20997075 161.31327834 -283.6124937 148.97326627 -274.5 137.3125 C-273.68932811 136.23724072 -272.8808059 135.16035802 -272.07421875 134.08203125 C-267.33932508 127.78085953 -262.40403797 121.8127383 -257.01953125 116.04296875 C-255.02981417 113.88667071 -253.10068553 111.7040374 -251.18359375 109.484375 C-247.52530472 105.28974067 -243.6869841 101.30766775 -239.75 97.375 C-238.70283813 96.32795898 -238.70283813 96.32795898 -237.63452148 95.25976562 C-232.9399255 90.61646195 -228.13597344 86.333693 -222.94140625 82.25390625 C-220.53350459 80.33914285 -218.26875786 78.3266937 -216 76.25 C-211.11175937 71.86445078 -205.87000738 68.08293071 -200.5 64.3125 C-199.489375 63.590625 -198.47875 62.86875 -197.4375 62.125 C-189.36648376 56.42781207 -181.0824608 51.20310383 -172.5 46.3125 C-171.59652832 45.79526367 -170.69305664 45.27802734 -169.76220703 44.74511719 C-147.5176512 32.11420817 -124.12226134 21.4393917 -99.5 14.3125 C-98.4167041 13.99829102 -97.3334082 13.68408203 -96.21728516 13.36035156 C-83.26823116 9.65565243 -70.29430517 6.18026106 -57 3.9375 C-56.15614746 3.79425293 -55.31229492 3.65100586 -54.44287109 3.50341797 C-36.38253346 0.71107195 -18.24805487 -0.06686752 0 0 Z M-191.94042969 107.05712891 C-193.39394361 108.22713025 -194.85678128 109.38552232 -196.3203125 110.54296875 C-206.80158702 118.93104413 -216.95887346 127.92649013 -225.5 138.3125 C-227.14321119 140.16524819 -228.78646013 142.01792521 -230.43359375 143.8671875 C-231.69790607 145.28136621 -231.69790607 145.28136621 -231.5 147.3125 C-232.16 147.3125 -232.82 147.3125 -233.5 147.3125 C-234.16 148.9625 -234.82 150.6125 -235.5 152.3125 C-236.16 152.3125 -236.82 152.3125 -237.5 152.3125 C-238.89754884 153.83994929 -238.89754884 153.83994929 -240.27734375 155.8359375 C-240.80956543 156.57038086 -241.34178711 157.30482422 -241.89013672 158.06152344 C-242.4213916 158.8043457 -242.95264648 159.54716797 -243.5 160.3125 C-244.41762052 161.55494477 -245.33557572 162.79714243 -246.25390625 164.0390625 C-257.92309422 180.12858512 -268.17202436 197.25593464 -276.5 215.3125 C-277.03270508 216.45259521 -277.03270508 216.45259521 -277.57617188 217.61572266 C-291.29559192 247.25989412 -300.17199543 280.65196534 -302.5 313.3125 C-302.66242188 314.97152344 -302.66242188 314.97152344 -302.828125 316.6640625 C-305.68866734 349.4097445 -303.57587951 383.40991215 -295.5 415.3125 C-294.51 415.3125 -293.52 415.3125 -292.5 415.3125 C-290.96625012 413.2130475 -289.63478436 411.16480567 -288.3125 408.9375 C-269.64448145 378.79813033 -242.14771359 363.18596783 -208.5 354.3125 C-207.76652344 354.11527344 -207.03304687 353.91804688 -206.27734375 353.71484375 C-198.52251702 351.88563213 -190.80131278 352.08966566 -182.875 352.1875 C-178.13125 352.22875 -173.3875 352.27 -168.5 352.3125 C-168.5 364.8525 -168.5 377.3925 -168.5 390.3125 C-180.25 390.125 -180.25 390.125 -183.87402344 390.04223633 C-194.74860885 389.95952972 -204.39678499 392.56040097 -214.4375 396.5625 C-215.20255859 396.86623535 -215.96761719 397.1699707 -216.75585938 397.48291016 C-236.83176113 405.6266703 -249.86544054 417.95706409 -261.18017578 436.31323242 C-263.95887316 440.72598983 -267.12302001 444.10984681 -270.90234375 447.65625 C-274.19991337 451.07475738 -274.41920561 454.50455614 -274.875 459.0625 C-274.61052941 468.21146228 -268.65665496 477.39037376 -264.75 485.4375 C-264.21995361 486.53118896 -263.68990723 487.62487793 -263.14379883 488.75170898 C-262.08455279 490.93434421 -261.02380016 493.11624903 -259.96142578 495.29736328 C-258.68577529 497.9292182 -257.42995425 500.56904139 -256.18359375 503.21484375 C-251.04061355 514.02429701 -245.95500363 522.52187453 -234.5 527.3125 C-223.89098755 531.04150262 -214.97872274 528.430917 -204.796875 524.46875 C-199.30067716 522.54117351 -194.17552503 522.15578835 -188.375 522.125 C-187.17617187 522.11082031 -185.97734375 522.09664062 -184.7421875 522.08203125 C-179.25866737 522.22125587 -173.8823995 523.32477541 -168.5 524.3125 C-168.51571045 525.11768066 -168.5314209 525.92286133 -168.54760742 526.75244141 C-168.59951132 529.81280008 -168.63671888 532.8729306 -168.66479492 535.93359375 C-168.68685261 537.88036238 -168.72501918 539.82692765 -168.76367188 541.7734375 C-168.89373555 558.76842498 -165.20109631 574.57128615 -153.60546875 587.41015625 C-145.33286736 595.37579655 -133.18800915 602.06843622 -121.5625 602.4375 C-120.0465625 602.375625 -120.0465625 602.375625 -118.5 602.3125 C-118.29375 603.4675 -118.0875 604.6225 -117.875 605.8125 C-116.78744789 610.48301488 -115.48578356 615.06735635 -114 619.625 C-113.70875244 620.66527344 -113.70875244 620.66527344 -113.41162109 621.7265625 C-112.29892234 624.95723119 -111.36957826 626.79139539 -108.38476562 628.58007812 C-105.78577306 629.65001359 -103.1937588 630.51214846 -100.5 631.3125 C-99.72076172 631.56523682 -98.94152344 631.81797363 -98.13867188 632.07836914 C-95.77024779 632.82795017 -93.39193618 633.51685267 -91 634.1875 C-90.10837158 634.43798096 -89.21674316 634.68846191 -88.2980957 634.9465332 C-68.87492348 640.30597344 -49.57253026 644.3997418 -29.5 646.3125 C-28.76716797 646.38307617 -28.03433594 646.45365234 -27.27929688 646.52636719 C-17.35941141 647.43560984 -7.45006057 647.42210899 2.5 647.3125 C2.48428955 646.57314209 2.4685791 645.83378418 2.45239258 645.07202148 C1.85579254 612.71213312 8.18681012 591.7943796 27.625 566.1171875 C39.96930933 549.97033524 39.96930933 549.97033524 42.5 530.3125 C39.33361545 515.83759921 32.87435553 509.24371515 21.5 500.3125 C20.05084267 499.13925427 18.61201531 497.95304556 17.1875 496.75 C16.32705078 496.03650391 16.32705078 496.03650391 15.44921875 495.30859375 C9.53993889 489.25720696 5.51676023 482.10149647 1.5625 474.6875 C1.03744873 473.71474121 0.51239746 472.74198242 -0.02856445 471.73974609 C-2.83604363 466.51328216 -5.56384812 461.25836409 -8.1875 455.9375 C-18.89045494 433.65973051 -18.89045494 433.65973051 -38.77172852 420.06713867 C-42.50047471 418.82405629 -46.24092 417.64843819 -50 416.5 C-54.455 415.118125 -58.91 413.73625 -63.5 412.3125 C-63.83 401.7525 -64.16 391.1925 -64.5 380.3125 C-59.77066904 384.45066459 -55.40352377 388.29883317 -51.109375 392.78125 C-50.14254555 393.77534147 -49.17507731 394.76881199 -48.20703125 395.76171875 C-46.72907033 397.28264649 -45.25537842 398.80685491 -43.79248047 400.34228516 C-31.53455417 413.17705504 -17.8212485 421.24710897 0.3125 421.6875 C5.79777235 421.47075672 11.14372033 420.47285459 16.5 419.3125 C16.61537109 420.04049805 16.73074219 420.76849609 16.84960938 421.51855469 C17.51773157 424.38867119 18.47234023 426.45117291 19.90625 429.015625 C20.39826904 429.90540039 20.89028809 430.79517578 21.3972168 431.71191406 C21.92613525 432.65260742 22.45505371 433.59330078 23 434.5625 C24.10161035 436.54091561 25.20185726 438.52009098 26.30078125 440.5 C26.84557129 441.48097656 27.39036133 442.46195312 27.95166016 443.47265625 C29.34245598 446.02354509 30.67736328 448.5910097 31.98046875 451.1875 C38.00514457 463.18575065 44.61249127 471.80352117 55.921875 479.42578125 C63.19956182 484.75172479 63.19956182 484.75172479 64.11904907 489.52845764 C64.11666229 490.7424675 64.11427551 491.95647736 64.11181641 493.20727539 C64.11748123 493.88123352 64.12314606 494.55519165 64.12898254 495.24957275 C64.14244748 497.47033937 64.12155459 499.68946155 64.1015625 501.91015625 C64.10706871 503.46611133 64.11519876 505.02205913 64.12582397 506.57798767 C64.14870235 510.6752474 64.14450164 514.77197379 64.13201904 518.8692627 C64.11372273 525.4008872 64.12399041 531.93219232 64.15787888 538.46374321 C64.16391057 540.72812018 64.15080811 542.99179688 64.13589478 545.25611877 C64.13076247 552.68256885 64.64086118 559.50013293 66.75790405 566.68260193 C68.8753311 574.18650669 68.8753311 574.18650669 67.5 578.3125 C66.84 578.3125 66.18 578.3125 65.5 578.3125 C63.8329156 580.44732751 62.27981586 582.58228311 60.75 584.8125 C59.84598411 586.11002487 58.94104136 587.40690447 58.03515625 588.703125 C57.5983252 589.33025391 57.16149414 589.95738281 56.71142578 590.60351562 C55.26667502 592.64165656 53.73757523 594.6036582 52.1875 596.5625 C44.47987479 606.77401475 40.34465504 619.06761667 40.375 631.8125 C40.37113281 633.43671875 40.37113281 633.43671875 40.3671875 635.09375 C40.49736826 638.24871895 40.954357 641.20661554 41.5 644.3125 C51.57128726 643.89769163 61.0596321 642.11454728 70.8125 639.75 C71.55533234 639.57198853 72.29816467 639.39397705 73.06350708 639.21057129 C129.87164096 625.53548147 188.72824063 594.25563336 226.5 548.3125 C227.27988281 547.38566406 228.05976562 546.45882813 228.86328125 545.50390625 C231.42777425 542.45555593 233.9640676 539.38464704 236.5 536.3125 C237.13550781 535.55710937 237.77101563 534.80171875 238.42578125 534.0234375 C250.86888559 518.94250162 261.22805061 502.48696947 270.5 485.3125 C271.01119385 484.37494873 271.01119385 484.37494873 271.53271484 483.41845703 C278.69329425 470.16928693 285.04135971 455.69838911 289.5 441.3125 C282.1026248 436.6220901 274.63934372 432.23863922 266.88085938 428.17602539 C263.32471389 426.30739414 259.85442026 424.36176875 256.4375 422.25 C251.99174751 419.52041153 247.37215951 417.21430901 242.68920898 414.92871094 C239.00852995 413.11634317 235.48763217 411.15876027 232 409 C224.62208016 404.52310689 218.12618743 403.24914608 209.5 404.3125 C203.28444283 406.39294929 198.94182539 409.52899574 194.5 414.3125 C186.52263434 421.37579252 177.59485636 426.01399017 167.5 429.3125 C167.51942322 423.42193289 167.57114993 417.53285909 167.65258789 411.64282227 C167.67575811 409.63997539 167.69016132 407.63700683 167.69555664 405.6340332 C167.70485333 402.75134546 167.74585906 399.87056881 167.79296875 396.98828125 C167.7890361 396.09538895 167.78510345 395.20249664 167.78105164 394.282547 C167.88619212 389.78376877 168.00849698 387.91680134 170.93505859 384.31860352 C171.78148926 383.65658936 172.62791992 382.9945752 173.5 382.3125 C174.07621094 381.72726562 174.65242188 381.14203125 175.24609375 380.5390625 C186.30874399 370.06403571 199.83196928 365.95073306 214.75 366 C216.19052734 365.97583008 216.19052734 365.97583008 217.66015625 365.95117188 C229.81278442 365.94303759 239.46206648 369.28245903 249.9375 375.25 C250.96665527 375.82194092 251.99581055 376.39388184 253.05615234 376.9831543 C256.21326967 378.74386366 259.35792797 380.52510266 262.5 382.3125 C263.94511963 383.12992676 263.94511963 383.12992676 265.41943359 383.96386719 C272.92219627 388.20982876 280.39535381 392.50599036 287.84765625 396.83984375 C288.5029834 397.21906982 289.15831055 397.5982959 289.83349609 397.98901367 C291.55135694 398.98367184 293.26605289 399.98379065 294.98046875 400.984375 C297.32018198 402.4679372 297.32018198 402.4679372 299.5 402.3125 C314.49173025 324.95517191 299.34939971 241.12251213 255.33203125 175.53125 C249.49911922 167.04395657 243.21776543 158.88725767 236.75537109 150.87207031 C235.58536975 149.41855639 234.42697768 147.95571872 233.26953125 146.4921875 C224.88725299 136.01815674 215.89802251 125.82696205 205.5 117.3125 C204.47133551 116.4351399 203.4441133 115.5560873 202.41796875 114.67578125 C201.32070214 113.74172959 200.22304586 112.80813548 199.125 111.875 C198.600271 111.42479492 198.07554199 110.97458984 197.53491211 110.51074219 C194.88203637 108.04778008 194.88203637 108.04778008 191.5 107.3125 C191.5 106.6525 191.5 105.9925 191.5 105.3125 C188.72357484 103.01383751 188.72357484 103.01383751 185.80175781 103.53051758 C182.01540554 104.42727049 178.35122205 105.57064176 174.671875 106.82421875 C173.92399719 107.0749263 173.17611938 107.32563385 172.40557861 107.5839386 C170.01893341 108.38504822 167.63444178 109.19235869 165.25 110 C163.69545433 110.52320806 162.14076782 111.04599782 160.5859375 111.56835938 C158.2517441 112.35274493 155.91789145 113.13806546 153.58512878 113.92669678 C149.5741643 115.28247608 145.5595417 116.62515544 141.53637695 117.94433594 C140.72900085 118.21002884 139.92162476 118.47572174 139.08978271 118.74946594 C137.5612526 119.2517668 136.03181095 119.75130613 134.50128174 120.2474823 C125.72779934 123.13662033 117.98812507 127.33674222 110.1875 132.25 C83.02240915 149.10448645 42.4732977 164.22918452 10.41796875 157.3671875 C3.15371057 155.54247286 -3.93935621 152.54324968 -10.65625 149.2578125 C-20.64784703 144.65641913 -34.52386716 146.71566299 -44.5 150.3125 C-59.89580074 156.5603534 -71.7501447 168.64313104 -79.5 183.3125 C-81.96053394 190.69410182 -81.10596582 198.94900659 -78.30078125 206.1015625 C-76.86939144 210.05359486 -76.25109149 214.18814584 -75.5 218.3125 C-82.51601766 212.38783607 -88.91266805 205.94193751 -95.31640625 199.36914062 C-96.47076172 198.19834961 -96.47076172 198.19834961 -97.6484375 197.00390625 C-98.34114746 196.29435791 -99.03385742 195.58480957 -99.74755859 194.85375977 C-101.36133732 193.09236224 -101.36133732 193.09236224 -103.5 193.3125 C-103.70367187 192.77109375 -103.90734375 192.2296875 -104.1171875 191.671875 C-106.05312808 188.36874474 -108.78699336 186.07127153 -111.625 183.5625 C-112.18832031 183.05589844 -112.75164062 182.54929688 -113.33203125 182.02734375 C-114.71651531 180.78365468 -116.10761488 179.54733695 -117.5 178.3125 C-115.18289019 166.26352901 -109.08997805 157.28594218 -101.10546875 148.2890625 C-99.01477387 145.90059248 -97.13682198 143.52653778 -95.3125 140.9375 C-92.24045116 136.74754227 -88.53776408 133.5519229 -84.5 130.3125 C-83.88382813 129.80976563 -83.26765625 129.30703125 -82.6328125 128.7890625 C-63.92253902 114.11586048 -39.27070276 106.86909288 -15.5 109.3125 C-5.64553518 110.83313799 3.40581796 114.31212667 12.5 118.3125 C23.30836336 122.83693117 32.68489726 121.79236211 43.625 118.125 C45.64935306 117.47275746 47.67409611 116.82172416 49.69921875 116.171875 C50.6845459 115.85154297 51.66987305 115.53121094 52.68505859 115.20117188 C55.88909618 114.18966305 59.11526602 113.30762887 62.36035156 112.43969727 C75.37545111 108.90138917 86.56251523 102.48740523 98.125 95.6875 C113.16295103 86.87667867 128.97154051 81.64544392 145.5 76.3125 C142.42885572 72.98874066 138.81782303 71.40165617 134.75 69.5625 C133.18723752 68.84823025 131.62474152 68.1333772 130.0625 67.41796875 C129.28390625 67.0626709 128.5053125 66.70737305 127.703125 66.34130859 C125.80243663 65.45373094 123.92932678 64.50752998 122.0625 63.55078125 C94.87100034 49.79470418 60.7884198 42.471423 30.5 40.3125 C28.84097656 40.15007812 28.84097656 40.15007812 27.1484375 39.984375 C-52.3980312 33.03548808 -129.97790813 57.09868988 -191.94042969 107.05712891 Z M-207.5 565.3125 C-202.5819497 571.77622325 -196.53173681 576.30457321 -190.08251953 581.11328125 C-187.90133734 582.76616106 -185.79757724 584.50766888 -183.6875 586.25 C-179.26449321 589.81033769 -174.66441256 593.07954923 -170 596.3125 C-169.29254639 596.80613037 -168.58509277 597.29976074 -167.85620117 597.80834961 C-164.48667682 600.39774991 -164.48667682 600.39774991 -160.5 601.3125 C-161.12109701 594.80924897 -163.10820271 588.96229296 -165.25 582.8125 C-165.58515625 581.80574219 -165.9203125 580.79898438 -166.265625 579.76171875 C-168.64254502 572.89205976 -171.03471867 566.67519181 -177.25 562.4375 C-187.92023558 558.74395692 -197.32811322 561.16839798 -207.5 565.3125 Z " fill="#C445FE" transform="translate(371.5,28.6875)"/>
<path d="M0 0 C3.89953558 2.90443878 6.98586315 6.41114572 10.125 10.10546875 C12.45003391 12.82517228 14.8942693 15.3207644 17.44921875 17.82421875 C27.44921875 27.82421875 27.44921875 27.82421875 29.78613281 30.19165039 C32.31486777 32.69140736 34.91162107 35.07178941 37.55859375 37.4453125 C45.67933221 44.81970129 53.40813514 52.59707705 61.16259766 60.35229492 C63.73060365 62.91807646 66.30656052 65.47570435 68.8828125 68.03320312 C70.51480987 69.66227273 72.14633832 71.29181227 73.77734375 72.921875 C74.54902893 73.68637466 75.32071411 74.45087433 76.11578369 75.23854065 C76.81781921 75.9436528 77.51985474 76.64876495 78.24316406 77.37524414 C79.17482391 78.30476646 79.17482391 78.30476646 80.12530518 79.25306702 C81.44921875 80.82421875 81.44921875 80.82421875 81.44921875 82.82421875 C82.01769531 83.05367188 82.58617187 83.283125 83.171875 83.51953125 C86.04277587 85.16426691 87.73788231 87.18913944 89.88671875 89.69921875 C92.8629854 93.16721641 95.86859122 95.99464967 99.44921875 98.82421875 C100.48284154 99.96120382 101.48421016 101.12844723 102.44921875 102.32421875 C105.41428822 105.80050709 108.62979679 108.88228143 112.01953125 111.93359375 C120.20969397 119.40606409 128.02557633 127.24993368 135.85351562 135.09814453 C138.33740324 137.5874319 140.82664558 140.07127577 143.31640625 142.5546875 C144.92089393 144.15983544 146.52507167 145.76529325 148.12890625 147.37109375 C148.86132538 148.10148865 149.59374451 148.83188354 150.34835815 149.58441162 C154.91378792 154.17045058 159.25065887 158.90005719 163.44921875 163.82421875 C167.67593596 162.17731161 170.50213333 159.04363475 173.62913513 155.8848114 C174.24564141 155.27001397 174.86214769 154.65521655 175.49733597 154.0217889 C177.564776 151.9576466 179.62498032 149.88643053 181.68530273 147.81518555 C183.1650164 146.3349078 184.64517048 144.85507018 186.12573242 143.37564087 C190.14878912 139.35315906 194.16563934 135.32453015 198.18142962 131.29479575 C202.3835786 127.08015111 206.59138525 122.8711628 210.79859924 118.66157532 C218.77219718 110.68175498 226.74068399 102.69685086 234.70735747 94.71011811 C243.75591534 85.63926574 252.81009687 76.57403578 261.86478317 67.50930154 C277.34387624 52.01283293 292.81872084 36.51213233 308.28889465 21.00675964 C308.94245833 20.35171678 309.59602201 19.69667391 310.26939064 19.02178127 C311.46973198 17.81869938 312.67004449 16.61558873 313.87032026 15.41244143 C315.39640952 13.88282388 316.92276842 12.35347597 318.44921875 10.82421875 C319.36772141 9.90382718 320.28622408 8.98343561 321.23256016 8.03515339 C327.891348 1.39356016 333.50247343 -3.22738251 343.32421875 -3.61328125 C350.16705594 -3.39970955 355.34649829 -1.96941845 360.48828125 2.66015625 C366.41162618 9.02226748 367.90072442 14.54704114 367.69140625 23.15234375 C366.91813883 31.6832295 361.11190437 37.66898961 354.88608348 43.03223765 C352.93236946 44.60923781 350.97345195 46.17980576 349.01032484 47.74507248 C327.80782974 64.67373509 304.81692851 83.46394182 301.3659609 111.81341118 C299.95806247 125.72839256 300.45532243 139.80873294 301.10228908 153.75230266 C301.46397528 161.78717483 301.51595484 169.81707099 301.55691277 177.85891757 C301.63724669 192.1940243 301.93938653 206.51474498 302.39428711 220.8425293 C302.83364682 234.69831376 303.17314758 248.55051138 303.37670898 262.41186523 C303.3893825 263.27211981 303.40205601 264.13237439 303.41511358 265.01869728 C303.49044016 270.19415678 303.56175221 275.36966557 303.63148077 280.54520319 C303.73319447 288.08006663 303.83931249 295.61486398 303.94920349 303.14961243 C303.96090013 303.9600177 303.97259678 304.77042298 303.98464786 305.605386 C304.148082 316.774712 304.3850364 327.94021585 304.68573548 339.10666482 C304.74592938 341.37132567 304.80341459 343.63603668 304.85975158 345.90079653 C304.87789704 346.62995364 304.89604249 347.35911074 304.91473781 348.11036352 C304.95058922 349.55533876 304.98630558 351.00031736 305.02188141 352.44529941 C305.10838741 355.90019413 305.20315808 359.35446664 305.31704521 362.80857468 C305.43788572 366.55347236 305.53393924 370.29826989 305.62501526 374.04399109 C305.66756378 375.12983905 305.71011231 376.21568701 305.75395018 377.33443946 C305.90569099 384.98514075 304.60843863 390.00203625 299.625 396.03125 C293.83371862 401.02122201 288.55402695 403.38441787 280.94921875 404.19921875 C273.27435391 403.3769118 266.4245383 400.98586754 261.44921875 394.82421875 C257.57704241 388.77509325 256.87113654 383.64339283 256.93023682 376.56103516 C256.91898494 375.05007657 256.91898494 375.05007657 256.90750575 373.50859356 C256.88727384 370.14744441 256.89532273 366.78697274 256.90332031 363.42578125 C256.8945829 361.01083206 256.88409654 358.59588865 256.87199402 356.18095398 C256.84990043 350.98906584 256.83993145 345.7973061 256.8411026 340.6053772 C256.84277473 333.09883981 256.82240784 325.59248791 256.7967473 318.08600008 C256.75570462 305.90581248 256.73236314 293.72565834 256.72021484 281.54541016 C256.70837934 269.71692694 256.68816911 257.88850667 256.65673828 246.06005859 C256.65480218 245.33034647 256.65286608 244.60063434 256.65087131 243.84880972 C256.64110645 240.18787696 256.63117739 236.52694467 256.62116671 232.86601257 C256.53839556 202.5187762 256.48467366 172.17154946 256.44921875 141.82421875 C256.0606775 142.21736897 255.67213625 142.61051918 255.27182102 143.01558304 C245.79468691 152.6033834 236.30339538 162.17696967 226.79686832 171.73563004 C222.19990019 176.35865957 217.60768606 180.98621077 213.02612305 185.62451172 C208.60213501 190.10293954 204.16594337 194.56894066 199.72112846 199.02669525 C198.02992461 200.72711723 196.34311798 202.4319246 194.66087532 204.14121246 C192.2986131 206.53992059 189.92100636 208.92236949 187.53930664 211.30175781 C186.85165726 212.00738358 186.16400787 212.71300934 185.45552063 213.4400177 C180.22469457 218.61639089 174.80421622 222.04490341 167.48046875 223.35546875 C166.64515625 223.34515625 165.80984375 223.33484375 164.94921875 223.32421875 C164.11390625 223.33453125 163.27859375 223.34484375 162.41796875 223.35546875 C153.95649228 221.8413098 148.31627657 217.41434794 142.45092773 211.39355469 C141.33704933 210.28077148 141.33704933 210.28077148 140.20066833 209.14550781 C137.7701616 206.71154168 135.35780906 204.26040103 132.9453125 201.80859375 C131.25533335 200.10928074 129.56424057 198.41107456 127.87208557 196.71392822 C123.43706147 192.25988004 119.01726348 187.79101894 114.6005249 183.31884766 C110.08462347 178.75165571 105.55440549 174.19871307 101.02539062 169.64453125 C92.1526422 160.71827601 83.29542678 151.77677313 74.44921875 142.82421875 C74.4459086 144.0425109 74.44259846 145.26080305 74.439188 146.51601315 C74.36012766 175.45205064 74.27089156 204.38804483 74.16916714 233.32401111 C74.15664864 236.88747525 74.14421581 240.45093968 74.13183594 244.0144043 C74.12813695 245.07851258 74.12813695 245.07851258 74.12436323 246.164118 C74.08466665 257.64257613 74.0519056 269.12104406 74.02171893 280.59953069 C73.99057739 292.38224287 73.95195647 304.16491351 73.90642869 315.94757897 C73.88107779 322.56372024 73.85939906 329.179841 73.84587479 335.7960186 C73.83303302 342.02496646 73.8109555 348.2538137 73.78183556 354.48270607 C73.77277638 356.76713345 73.76707343 359.05157702 73.76500511 361.33602142 C73.7616709 364.45963727 73.7461618 367.58296986 73.72769165 370.70652771 C73.72962638 371.60635783 73.73156112 372.50618795 73.73355448 373.43328565 C73.64929401 382.9927201 72.36284958 390.84980875 65.44921875 397.82421875 C61.50257901 400.93673502 57.55155531 403.43173132 52.44921875 403.82421875 C51.37671875 403.90671875 50.30421875 403.98921875 49.19921875 404.07421875 C41.72207163 403.57574228 34.90071095 401.05653098 29.44921875 395.82421875 C24.29898833 389.07925856 23.74535669 382.9198226 23.87054443 374.64784241 C23.86853885 373.44664385 23.86653327 372.24544529 23.86446691 371.00784677 C23.86374862 367.69483859 23.88528482 364.38335055 23.91627908 361.07057965 C23.94416881 357.48976691 23.94277803 353.90895274 23.94465637 350.32804871 C23.9514915 344.12881192 23.97555464 337.9298386 24.0104599 331.73069954 C24.06017126 322.75700697 24.07361561 313.78352479 24.07660094 304.80970793 C24.081593 290.23450699 24.10224708 275.65938316 24.13916016 261.08422852 C24.14135784 260.21270039 24.14355553 259.34117227 24.14581981 258.4432342 C24.17081654 248.71996375 24.20121456 238.99672662 24.23931885 229.27349854 C24.24274013 228.39931257 24.24616142 227.5251266 24.24968638 226.62445014 C24.2531108 225.75112667 24.25653522 224.87780319 24.26006341 223.97801536 C24.26696819 222.21687029 24.27386763 220.45572519 24.28076172 218.69458008 C24.28417697 217.82442192 24.28759222 216.95426376 24.29111096 216.05773718 C24.34717929 201.53671644 24.36843731 187.01588569 24.36169648 172.4947595 C24.35896939 163.54579587 24.38568957 154.59787566 24.45060405 145.64914238 C24.49284099 139.51587052 24.50258089 133.38309056 24.48699537 127.24969513 C24.47908048 123.7136742 24.48576049 120.17928082 24.53215218 116.64352036 C24.58220267 112.80425659 24.56214971 108.96711709 24.53582764 105.12757874 C24.56156286 104.01890743 24.58729808 102.91023612 24.61381316 101.76796871 C24.47710307 94.01820742 22.15232568 90.29511128 16.66515172 84.87367785 C15.5682649 83.8591956 15.5682649 83.8591956 14.44921875 82.82421875 C13.47092975 81.82306083 12.49603407 80.81855716 11.52688599 79.80854797 C10.68544037 78.98138779 9.84399475 78.1542276 8.97705078 77.30200195 C8.50263046 76.83386078 8.02821014 76.3657196 7.53941345 75.88339233 C6.53230122 74.88989235 5.52406661 73.89752891 4.5147438 72.9062748 C2.9132873 71.33199848 1.31669712 69.75293065 -0.27859497 68.17240906 C-4.80637966 63.68687227 -9.33720649 59.20452844 -13.88378906 54.73803711 C-16.68445471 51.98602282 -19.4751449 49.22422495 -22.25967789 46.45589256 C-23.31412669 45.41128809 -24.37220738 44.37033562 -25.43407822 43.33327675 C-26.91716019 41.88414523 -28.38717009 40.42282812 -29.85498047 38.95825195 C-31.10998856 37.72109184 -31.10998856 37.72109184 -32.39035034 36.4589386 C-37.27877936 30.49733117 -38.10757688 24.55252207 -37.890625 16.9765625 C-37.17362681 10.32578622 -34.49705845 6.4564664 -29.67578125 1.94921875 C-21.06120711 -4.9771513 -9.62602007 -5.40979228 0 0 Z " fill="#C344FF" transform="translate(206.55078125,199.17578125)"/>
<path d="M0 0 C0 8.58 0 17.16 0 26 C-8.22237756 29.65439003 -12.11303257 31.14456774 -20.625 31.125 C-21.75164062 31.12757813 -22.87828125 31.13015625 -24.0390625 31.1328125 C-27 31 -27 31 -30 30 C-28.36033597 25.82791008 -25.30728471 23.01878371 -22.1875 19.921875 C-21.61797607 19.35043762 -21.04845215 18.77900024 -20.46166992 18.19024658 C-19.2604332 16.98765211 -18.05668003 15.78756666 -16.85058594 14.58984375 C-14.99959045 12.74959283 -13.15954554 10.89887367 -11.3203125 9.046875 C-10.15168276 7.87956616 -8.98243316 6.71287749 -7.8125 5.546875 C-7.26037842 4.99070496 -6.70825684 4.43453491 -6.1394043 3.86151123 C-2.22993635 0 -2.22993635 0 0 0 Z " fill="#BE33FF" transform="translate(436,409)"/>
<path d="" fill="#AF00FF" transform="translate(0,0)"/>
<path d="" fill="#C038FF" transform="translate(0,0)"/>
<path d="" fill="#AD00FF" transform="translate(0,0)"/>
<path d="" fill="#BF39FF" transform="translate(0,0)"/>
<path d="" fill="#AD00FF" transform="translate(0,0)"/>
<path d="" fill="#C238FF" transform="translate(0,0)"/>
<path d="" fill="#AE00FF" transform="translate(0,0)"/>
<path d="" fill="#C23EFF" transform="translate(0,0)"/>
<path d="" fill="#AD00FF" transform="translate(0,0)"/>
<path d="" fill="#C23DFF" transform="translate(0,0)"/>
<path d="" fill="#AE00FF" transform="translate(0,0)"/>
<path d="" fill="#C13EFF" transform="translate(0,0)"/>
<path d="" fill="#BF36FF" transform="translate(0,0)"/>
<path d="" fill="#C346FF" transform="translate(0,0)"/>
<path d="" fill="#BD36FF" transform="translate(0,0)"/>
<path d="" fill="#C13DFF" transform="translate(0,0)"/>
<path d="" fill="#BA45FF" transform="translate(0,0)"/>
<path d="" fill="#C23DFF" transform="translate(0,0)"/>
<path d="" fill="#BD45FF" transform="translate(0,0)"/>
<path d="" fill="#C23DFF" transform="translate(0,0)"/>
<path d="" fill="#C33BFF" transform="translate(0,0)"/>
<path d="" fill="#C23DFF" transform="translate(0,0)"/>
<path d="" fill="#C23EFF" transform="translate(0,0)"/>
<path d="" fill="#C33DFF" transform="translate(0,0)"/>
<path d="" fill="#C33DFF" transform="translate(0,0)"/>
<path d="" fill="#C14EFF" transform="translate(0,0)"/>
<path d="" fill="#C23EFF" transform="translate(0,0)"/>
<path d="" fill="#C14EFF" transform="translate(0,0)"/>
<path d="" fill="#C33DFF" transform="translate(0,0)"/>
<path d="" fill="#C345FF" transform="translate(0,0)"/>
<path d="" fill="#C344FF" transform="translate(0,0)"/>
<path d="" fill="#C343FF" transform="translate(0,0)"/>
<path d="" fill="#D383FF" transform="translate(0,0)"/>
<path d="" fill="#C345FF" transform="translate(0,0)"/>
<path d="" fill="#D37FFF" transform="translate(0,0)"/>
<path d="" fill="#C344FF" transform="translate(0,0)"/>
<path d="" fill="#D27EFF" transform="translate(0,0)"/>
<path d="" fill="#C345FF" transform="translate(0,0)"/>
<path d="" fill="#C344FF" transform="translate(0,0)"/>
<path d="" fill="#C345FF" transform="translate(0,0)"/>
<path d="" fill="#C84EFF" transform="translate(0,0)"/>
<path d="" fill="#D988FF" transform="translate(0,0)"/>
<path d="" fill="#C64FFF" transform="translate(0,0)"/>
<path d="" fill="#DA88FF" transform="translate(0,0)"/>
<path d="" fill="#C74FFF" transform="translate(0,0)"/>
<path d="" fill="#DA88FF" transform="translate(0,0)"/>
<path d="" fill="#C953FF" transform="translate(0,0)"/>
<path d="" fill="#DA88FF" transform="translate(0,0)"/>
<path d="" fill="#C955FF" transform="translate(0,0)"/>
<path d="" fill="#DA88FF" transform="translate(0,0)"/>
<path d="" fill="#C854FF" transform="translate(0,0)"/>
<path d="" fill="#DB89FF" transform="translate(0,0)"/>
</svg>
